<?xml version="1.0" encoding="UTF-8"?>
<svg width="700pt" height="700pt" version="1.1" viewBox="0 0 700 700" xmlns="http://www.w3.org/2000/svg">
 <path d="m525 175h-350c-19.324 0-35 15.676-35 35v280c0 19.324 15.676 35 35 35h350c19.324 0 35-15.676 35-35v-280c0-19.324-15.676-35-35-35zm-350 21h350c7.7305 0 14 6.2695 14 14v42h-378v-42c0-7.7305 6.2695-14 14-14zm350 308h-350c-7.7305 0-14-6.2695-14-14v-217h378v217c0 7.7305-6.2695 14-14 14z"/>
 <path d="m196 259c-15.438 0-28 12.562-28 28s12.562 28 28 28 28-12.562 28-28-12.562-28-28-28zm0 35c-3.8594 0-7-3.1406-7-7s3.1406-7 7-7 7 3.1406 7 7-3.1406 7-7 7z"/>
 <path d="m294 259c-15.438 0-28 12.562-28 28s12.562 28 28 28 28-12.562 28-28-12.562-28-28-28zm0 35c-3.8594 0-7-3.1406-7-7s3.1406-7 7-7 7 3.1406 7 7-3.1406 7-7 7z"/>
 <path d="m392 259c-15.438 0-28 12.562-28 28s12.562 28 28 28 28-12.562 28-28-12.562-28-28-28zm0 35c-3.8594 0-7-3.1406-7-7s3.1406-7 7-7 7 3.1406 7 7-3.1406 7-7 7z"/>
 <path d="m490 259c-15.438 0-28 12.562-28 28s12.562 28 28 28 28-12.562 28-28-12.562-28-28-28zm0 35c-3.8594 0-7-3.1406-7-7s3.1406-7 7-7 7 3.1406 7 7-3.1406 7-7 7z"/>
 <path d="m196 357c-15.438 0-28 12.562-28 28s12.562 28 28 28 28-12.562 28-28-12.562-28-28-28zm0 35c-3.8594 0-7-3.1406-7-7s3.1406-7 7-7 7 3.1406 7 7-3.1406 7-7 7z"/>
 <path d="m294 357c-15.438 0-28 12.562-28 28s12.562 28 28 28 28-12.562 28-28-12.562-28-28-28zm0 35c-3.8594 0-7-3.1406-7-7s3.1406-7 7-7 7 3.1406 7 7-3.1406 7-7 7z"/>
 <path d="m392 357c-15.438 0-28 12.562-28 28s12.562 28 28 28 28-12.562 28-28-12.562-28-28-28zm0 35c-3.8594 0-7-3.1406-7-7s3.1406-7 7-7 7 3.1406 7 7-3.1406 7-7 7z"/>
 <path d="m490 357c-15.438 0-28 12.562-28 28s12.562 28 28 28 28-12.562 28-28-12.562-28-28-28zm0 35c-3.8594 0-7-3.1406-7-7s3.1406-7 7-7 7 3.1406 7 7-3.1406 7-7 7z"/>
</svg>